<?xml version="1.0" standalone="no"?>
<!DOCTYPE svg PUBLIC "-//W3C//DTD SVG 20010904//EN"
 "http://www.w3.org/TR/2001/REC-SVG-20010904/DTD/svg10.dtd">
<svg version="1.0" xmlns="http://www.w3.org/2000/svg"
 width="700.000000pt" height="700.000000pt" viewBox="0 0 700.000000 700.000000"
 preserveAspectRatio="xMidYMid meet">
<metadata>
Created by potrace 1.11, written by Peter Selinger 2001-2013
</metadata>
<g transform="translate(0.000000,700.000000) scale(0.100000,-0.100000)"
fill="#000000" stroke="none">
<path d="M1807 5739 c-336 -60 -620 -225 -839 -489 -164 -198 -282 -481 -304
-735 -4 -44 -8 -763 -8 -1597 l0 -1517 30 -47 c16 -27 49 -62 73 -79 38 -27
51 -30 114 -30 63 0 77 4 116 30 56 38 81 71 95 127 8 31 11 279 10 816 l0
772 948 0 948 0 0 -787 c0 -771 1 -789 21 -833 25 -56 44 -77 91 -101 51 -26
114 -33 167 -19 60 16 128 80 145 139 11 38 13 306 12 1591 -1 850 -5 1554 -8
1565 -3 11 -9 42 -12 69 -4 27 -9 53 -11 56 -2 4 -7 21 -10 39 -3 17 -17 66
-31 108 -144 428 -491 761 -929 889 -192 56 -421 68 -618 33z m338 -423 c86
-9 111 -14 195 -42 277 -93 496 -307 594 -582 51 -143 55 -195 56 -749 0 -484
-1 -513 -17 -514 -18 0 -1776 0 -1844 1 l-36 0 2 533 c2 518 2 534 25 627 75
313 291 557 595 675 11 5 25 9 30 11 6 1 37 10 70 18 33 9 94 19 135 22 41 4
76 7 78 9 1 1 15 1 30 0 15 -2 54 -6 87 -9z"/>
<path d="M5168 3425 c-2 -1 -28 -5 -58 -9 -301 -33 -590 -211 -764 -471 -150
-224 -209 -460 -183 -727 47 -465 395 -851 862 -955 97 -22 310 -25 410 -7
145 27 280 79 399 154 37 23 69 41 71 39 2 -2 5 -19 8 -36 11 -67 64 -129 135
-156 78 -31 154 -18 219 38 81 69 76 7 77 1024 1 599 -3 919 -9 946 -25 97
-124 168 -223 160 -106 -9 -183 -79 -201 -183 l-6 -32 -39 26 c-173 118 -373
182 -588 189 -58 2 -108 2 -110 0z m239 -456 c244 -61 426 -249 484 -497 14
-60 14 -227 -1 -284 -78 -306 -337 -510 -645 -509 -320 1 -602 245 -643 556
-29 224 39 422 198 573 161 154 394 216 607 161z"/>
</g>
</svg>
